<svg width="189" height="153" viewBox="0 0 189 153" fill="none" xmlns="http://www.w3.org/2000/svg">
<g clipPath="url(#clip0_129_1837)">
<path d="M34.2015 61.3966L34.047 67.2574C34.0322 67.8188 32.9546 67.7733 32.4967 67.7442L31.0814 64.4042C30.58 63.7696 30.1729 62.4565 30.1898 61.4951L30.2348 58.1766C30.2462 57.7427 29.8069 57.3311 29.9869 57.2677C30.2098 57.1885 30.569 57.0958 30.7595 57.2796L33.6738 59.8249C33.9557 60.0877 34.2158 60.8522 34.2017 61.3881L34.2015 61.3966Z" fill="#E62A49"/>
<path d="M32.9198 61.3628L32.7653 67.2236C32.7505 67.785 32.543 67.9242 32.2895 67.5515L30.3684 64.3854C29.9434 63.7528 29.6042 62.4416 29.6211 61.4801L29.6746 58.1618C29.6876 57.345 29.9505 57.037 30.3056 57.4209L32.477 59.7934C32.7164 60.0551 32.9341 60.8184 32.92 61.3543L32.9198 61.3628Z" fill="#A8000C"/>
<path d="M130.241 8.89749C129.89 8.68394 129.521 8.49547 129.135 8.33207L118.606 4.00276C116.329 3.06598 113.782 2.71793 111.049 2.93532C107.577 3.2098 103.808 4.4128 99.9557 6.50739L53.5165 31.7645C51.681 32.7631 49.8964 34.4099 48.4246 36.4311C47.9577 37.0657 47.5238 37.7352 47.1315 38.4399L32.7188 64.1667L7.48075 85.5393C4.79609 87.8179 2.78049 91.459 2.40513 94.7433L1.14716 105.41C0.970767 106.946 1.40042 108.047 2.21119 108.545L55.1821 141.291C55.1821 141.291 55.1408 141.248 55.124 141.239C55.8417 141.726 56.8694 141.727 58.0327 141.094L179.857 74.8294C183.873 72.6455 187.202 67.1919 187.313 62.6408L187.561 51.9391C187.673 47.0646 186.064 43.345 183.12 41.5905C183.154 41.6084 183.187 41.6178 183.221 41.6442L130.241 8.89749ZM168.001 35.7952C168.069 35.797 168.128 35.8156 168.196 35.8259C168.128 35.8241 168.069 35.8055 168.001 35.7952ZM54.2715 140.067C54.3028 140.17 54.36 140.257 54.4084 140.352C54.36 140.257 54.3113 140.17 54.2715 140.067ZM102.738 67.5446C102.668 67.6279 102.598 67.7026 102.519 67.7857C102.59 67.7024 102.659 67.6276 102.738 67.5446ZM105.295 65.2712C105.2 65.3367 105.105 65.4108 105.01 65.4764C105.105 65.4023 105.2 65.3367 105.295 65.2712ZM160.241 36.3227C160.189 36.3384 160.138 36.3541 160.087 36.3612C160.138 36.3456 160.189 36.3299 160.241 36.3227ZM154.743 38.3399C154.605 38.4044 154.468 38.4688 154.322 38.5331C154.459 38.4686 154.597 38.4041 154.743 38.3399ZM157.56 37.1544C157.423 37.2018 157.277 37.2575 157.14 37.3135C157.277 37.2575 157.423 37.2103 157.56 37.1544ZM158.914 36.6963C158.803 36.7275 158.692 36.7671 158.58 36.8067C158.692 36.7671 158.803 36.736 158.914 36.6963Z" fill="#E62A49"/>
<path d="M176.874 37.842L170.866 35.3684C169.353 34.7497 167.123 34.2823 164.829 34.324L116.207 4.45857C117.298 4.64905 118.293 4.92214 119.083 5.24939L125.091 7.72306L132.637 10.4926L176.873 37.8505L176.874 37.842Z" fill="#1A1A1A"/>
<path d="M100.093 71.1945L85.6806 96.9212L32.7098 64.1748L47.1225 38.448C47.5148 37.7433 47.9486 37.0738 48.4155 36.4392L101.492 69.0437C100.99 69.72 100.521 70.4397 100.093 71.1945Z" fill="#E62A49"/>
<path d="M98.5618 70.3284C98.7044 70.0768 98.8469 69.8252 98.9977 69.5823C78.3776 59.4797 61.2604 49.248 48.9387 38.8278C48.841 38.987 48.7519 39.1464 48.6627 39.3058L35.0789 63.5562C47.5313 75.7844 64.6438 85.8713 85.0492 94.4531L98.5618 70.3284Z" fill="#1A1A1A"/>
<path opacity="0.2" d="M43.0275 69.4178L56.2245 45.6679C56.9244 46.18 57.6329 46.6924 58.3584 47.2052L45.0658 71.0378C44.375 70.5003 43.6926 69.9631 43.0275 69.4178Z" fill="white"/>
<path opacity="0.2" d="M50.6628 41.4099C52.0518 42.5276 53.5 43.6553 55.0079 44.7761L41.9132 68.5117C40.492 67.3251 39.1137 66.1226 37.7955 64.8962L50.6713 41.4101L50.6628 41.4099Z" fill="white"/>
<path d="M2.21062 108.553C14.4275 119.405 33.4815 130.275 55.1815 141.3C54.4652 140.762 54.456 139.501 54.1175 138.165C33.2426 127.417 14.5846 116.668 1.14681 105.41C0.97042 106.946 1.40007 108.047 2.21084 108.545L2.21062 108.553Z" fill="#1A1A1A"/>
<path d="M51.0076 110.818L81.8067 95.6615C61.5132 87.023 44.6188 77.6825 35.1458 66.8182L19.429 88.2034C17.8167 90.3996 18.2026 93.4827 20.3144 95.2152C27.1406 100.8 36.0409 106.006 46.6483 110.891C48.0329 111.532 49.6477 111.498 51.0159 110.827L51.0076 110.818Z" fill="#A8000C"/>
<path d="M54.1175 138.165L55.3665 127.515C55.7419 124.231 57.7575 120.589 60.4421 118.311L85.6802 96.9383L100.093 71.2115C101.733 68.284 104.065 65.8429 106.478 64.5361L152.917 39.279C159.802 35.5364 166.392 34.6461 171.568 36.7743L182.096 41.1037C185.685 42.5687 187.678 46.5538 187.552 51.9727L187.304 62.6744C187.262 64.2651 186.826 65.9646 186.112 67.5971L54.1113 139.365C54.07 138.998 54.0636 138.597 54.1177 138.156L54.1175 138.165Z" fill="#A8000C"/>
<path d="M157.663 39.0466C160.589 37.9235 163.415 37.3596 165.996 37.4276C167.761 37.4741 169.409 37.807 170.887 38.4163L181.425 42.7458C182.559 43.2098 183.489 44.026 184.191 45.117L157.976 59.3733L148.864 43.5133L157.663 39.0381L157.663 39.0466Z" fill="#1A1A1A"/>
<path d="M101.667 72.0787C103.147 69.4363 105.217 67.2607 107.346 66.0996L125.985 55.9593L125.428 77.0888L87.2615 97.8482L87.2627 97.8057L101.667 72.0787Z" fill="#1A1A1A"/>
<path d="M125.428 77.0888L124.855 98.8477L91.3843 117.058C89.2988 118.195 86.7662 116.638 86.829 114.257L87.2615 97.8482L125.428 77.0888Z" fill="#E62A49"/>
<path d="M58.0324 141.094C55.9815 142.206 54.355 141.397 54.1198 139.365L54.0274 138.682L54.1177 138.156L56.5156 138.058L186.113 67.5631C184.776 70.6007 182.459 73.4082 179.848 74.829L58.0239 141.094L58.0324 141.094Z" fill="#1A1A1A"/>
<path d="M156.667 76.8312L156.541 81.6117L154.387 82.7806C154.869 80.5802 155.66 78.6007 156.667 76.8312Z" fill="#E62A49"/>
<path d="M148.227 43.8625L157.123 59.8445L156.962 65.969C156.904 68.1721 156.118 70.2709 154.806 72.0408C152.586 75.0382 150.803 78.5578 150.241 82.1436C149.925 84.1697 148.639 85.9063 146.838 86.8803L125.389 98.5468L126.519 55.667L148.227 43.8625Z" fill="#E62A49"/>
<path d="M40.4464 122.866C40.3859 123.23 40.5464 123.583 40.8643 123.77C43.9615 125.495 47.1937 127.257 50.5691 129.065C51.6664 129.648 52.9895 129.078 53.376 127.948C53.4125 127.855 53.4404 127.762 53.4601 127.66L54.4338 122.298C54.6019 121.4 54.0784 120.314 53.2656 119.892C51.5152 118.952 49.7982 118.03 48.1237 117.109C46.9013 116.439 45.5618 116.344 44.3721 116.687C42.6517 117.186 41.2296 118.613 40.8635 120.578L40.4384 122.848L40.4464 122.866Z" fill="#FF6B84"/>
<path d="M16.7446 109.481C22.4212 113.248 28.7653 117.144 35.9196 121.24C36.7648 121.721 37.7733 121.484 38.3351 120.793C38.5369 120.551 38.6718 120.265 38.74 119.935L39.7618 114.361C39.9296 113.472 39.5033 112.567 38.7166 112.12C30.9432 107.668 24.0643 103.435 17.9038 99.3396C17.6952 99.1979 17.4674 99.1409 17.2375 99.1603C16.7696 99.1906 16.3275 99.5279 16.2372 100.053L16.1089 100.731L15.3931 104.687L15.1852 105.805C14.9182 107.237 15.5341 108.683 16.7444 109.49L16.7446 109.481Z" fill="#7C0009"/>
<path d="M17.644 108.875C23.3205 112.642 29.6647 116.538 36.8189 120.633C37.3041 120.919 37.8553 120.95 38.3351 120.792C38.5369 120.551 38.6718 120.265 38.74 119.935L39.7618 114.361C39.9296 113.472 39.5033 112.567 38.7166 112.12C30.9432 107.668 24.0643 103.435 17.9038 99.3396C17.6952 99.1979 17.4674 99.1409 17.2375 99.1603C17.1844 99.2441 17.1562 99.3455 17.1365 99.4471L17.0083 100.125L16.2924 104.081L16.0846 105.199C15.8175 106.631 16.4334 108.077 17.6438 108.883L17.644 108.875Z" fill="#A8000C"/>
<path d="M5.02092 100.864C7.26045 102.583 9.62709 104.314 12.1373 106.074C12.6292 106.427 13.3417 106.14 13.4425 105.538L13.6705 104.301L13.7494 103.886C14.4943 99.7945 12.8116 95.6388 9.45309 93.1924C8.64456 92.6093 7.83625 92.0177 7.06166 91.4355C7.03665 91.4178 7.02012 91.4003 6.99511 91.3827C6.22879 90.8092 5.13022 91.2399 4.96952 92.1805L3.9392 98.0777C3.75839 99.137 4.16347 100.203 5.01243 100.864L5.02092 100.864Z" fill="#FF6B84"/>
<path d="M43.0563 122.458C46.1534 124.191 49.3855 125.953 52.7611 127.753C52.9621 127.86 53.1643 127.925 53.3758 127.956C53.4122 127.863 53.4402 127.771 53.4598 127.669L54.4336 122.306C54.6016 121.409 54.0782 120.322 53.2654 119.901C51.5149 118.961 49.798 118.039 48.1235 117.118C46.9011 116.447 45.5615 116.352 44.3719 116.696C43.7171 117.368 43.2352 118.249 43.0553 119.274L42.6387 121.544C42.5694 121.917 42.7385 122.27 43.048 122.449L43.0563 122.458Z" fill="white"/>
<path d="M7.22145 99.5517C9.2526 101.12 11.4108 102.701 13.679 104.301L13.7579 103.886C14.5028 99.7947 12.8201 95.639 9.46158 93.1926C8.65305 92.6095 7.84474 92.0179 7.07016 91.4357L6.13951 96.7738C5.9587 97.833 6.37227 98.8995 7.22123 99.5602L7.22145 99.5517Z" fill="white"/>
<path d="M126.511 55.6667L148.218 43.8623L157.115 59.8443L125.954 76.7962L126.511 55.6667Z" fill="#1A1A1A"/>
<mask id="mask0_129_1837" style="mask-type:luminance" maskUnits="userSpaceOnUse" x="55" y="114" width="32" height="36">
<path d="M86.5652 125.23C87.5854 115.528 82.025 112.189 75.4154 115.786C69.6589 118.92 62.7954 126.349 63.6522 137.99L55.9404 142.154L55.7487 149.427L85.6343 139.6L86.5652 125.23Z" fill="white"/>
</mask>
<g mask="url(#mask0_129_1837)">
<path d="M86.5364 125.681L83.282 127.34L76.865 114.283L81.7716 113.425L87.513 116.667L86.5364 125.681Z" fill="black"/>
<path d="M59.2336 133.226C59.2336 133.226 59.232 133.286 59.2311 133.32C59.1447 136.918 60.3513 139.478 62.3571 140.723L66.0343 142.999C65.909 142.919 65.7927 142.822 65.6678 142.725C67.6758 144.208 70.6048 144.26 73.9119 142.534C74.2727 142.382 74.6426 142.204 75.0132 142.001C80.977 138.737 85.868 130.736 86.0371 123.999C86.0452 123.693 86.0271 123.412 86.0177 123.122C86.0186 123.088 86.0195 123.054 86.0204 123.02C86.1072 119.405 84.8924 116.836 82.8947 115.609L79.2174 113.333C77.2115 112.096 74.4064 112.176 71.2625 113.829C70.919 113.973 70.5748 114.143 70.2216 114.33C64.2839 117.569 59.7522 111.619 59.2059 132.34C59.1979 132.647 59.2159 132.928 59.2253 133.218L59.2336 133.226Z" fill="black"/>
<path d="M75.0113 142.393C81.1648 139.022 86.2153 130.771 86.3905 123.804C86.5402 116.837 81.7581 113.936 75.6058 117.264C69.4785 120.609 64.4193 128.869 64.2352 135.852C64.0859 142.803 68.8762 145.712 75.0113 142.393Z" fill="#333333"/>
<path d="M68.798 135.147L74.042 131.157L69.7728 137.156C70.2119 137.576 70.766 137.82 71.4267 137.889L74.7554 131.482L73.9194 137.418C74.3058 137.258 74.7108 137.039 75.1252 136.786C75.5395 136.533 75.9381 136.237 76.3372 135.916L75.7916 130.837L78.8882 133.234C79.5747 132.324 80.1691 131.361 80.6367 130.377L76.5461 129.605L81.7519 127.061C81.8404 126.604 81.8862 126.154 81.8977 125.72C81.9091 125.286 81.8857 124.886 81.819 124.518L76.575 128.508L80.8442 122.509C80.4051 122.089 79.8509 121.844 79.1902 121.776L75.8616 128.183L76.6976 122.246C76.3111 122.406 75.9061 122.626 75.4918 122.879C75.0774 123.132 74.6789 123.427 74.2797 123.749L74.8253 128.828L71.7288 126.431C71.0423 127.341 70.4478 128.304 69.9802 129.288L74.0709 130.059L68.865 132.603C68.7765 133.061 68.7307 133.511 68.7193 133.945C68.7078 134.378 68.7312 134.779 68.798 135.147Z" fill="#B3B3B3"/>
<path d="M72.7406 131.225C72.7837 129.591 73.9728 127.656 75.3947 126.885C76.8165 126.114 77.9361 126.816 77.8933 128.441C77.8505 130.065 76.6611 132.009 75.2393 132.78C73.8175 133.551 72.6976 132.858 72.7406 131.225Z" fill="#1A1A1A"/>
</g>
<path d="M75.3897 115.794C69.6332 118.928 62.7697 126.357 63.6265 137.998C59.2916 129.414 68.0336 117.745 74.531 114.213C76.5993 113.085 78.6097 112.542 80.5025 112.592C86.8345 112.759 88.7132 119.788 86.5221 125.578L86.5308 125.247C87.5595 115.544 82.0076 112.206 75.398 115.803L75.3897 115.794Z" fill="#E62A49"/>
<mask id="mask1_129_1837" style="mask-type:luminance" maskUnits="userSpaceOnUse" x="144" y="65" width="32" height="37">
<path d="M175.514 76.8428C176.535 67.1404 170.974 63.8017 164.365 67.3984C158.608 70.5323 151.745 77.9612 152.601 89.6029L144.89 93.7663L144.698 101.039L174.583 91.2123L175.514 76.8428Z" fill="white"/>
</mask>
<g mask="url(#mask1_129_1837)">
<path d="M175.486 77.2932L172.231 78.9524L165.814 65.8959L170.721 65.0378L176.462 68.2876L175.486 77.2932Z" fill="black"/>
<path d="M148.182 84.8473C148.182 84.8473 148.181 84.9068 148.18 84.9409C148.094 88.5392 149.3 91.0991 151.306 92.3437L154.983 94.6197C154.858 94.5398 154.742 94.4431 154.617 94.3462C156.625 95.8292 159.554 95.8808 162.861 94.1549C163.222 94.0027 163.592 93.8252 163.962 93.6222C169.926 90.3575 174.817 82.3573 174.986 75.6202C174.994 75.314 174.976 75.0326 174.967 74.7429C174.968 74.7089 174.968 74.6749 174.969 74.6409C175.056 71.0255 173.841 68.4569 171.844 67.2295L168.166 64.9535C166.16 63.7174 163.355 63.7967 160.211 65.4503C159.868 65.5945 159.524 65.7641 159.171 65.9506C153.233 69.1904 148.701 63.2402 148.155 83.9613C148.147 84.2675 148.165 84.5489 148.174 84.8386L148.182 84.8473Z" fill="black"/>
<path d="M163.96 94.0052C170.114 90.6348 175.164 82.3835 175.34 75.4167C175.489 68.4492 170.707 65.5482 164.555 68.876C158.428 72.2215 153.368 80.4811 153.193 87.4649C153.044 94.4154 157.834 97.3251 163.969 94.0054L163.96 94.0052Z" fill="#333333"/>
<path d="M157.747 86.7678L162.991 82.7776L158.722 88.7768C159.161 89.197 159.715 89.4414 160.376 89.5099L163.704 83.1029L162.868 89.0393C163.255 88.8793 163.66 88.6601 164.074 88.4072C164.488 88.1542 164.887 87.8583 165.286 87.5368L164.741 82.4577L167.837 84.8547C168.524 83.9449 169.118 82.9817 169.586 81.9981L165.495 81.2264L170.701 78.6823C170.789 78.2249 170.835 77.775 170.847 77.3412C170.858 76.9074 170.835 76.5067 170.768 76.1389L165.524 80.129L169.793 74.1299C169.354 73.7097 168.8 73.4653 168.139 73.3968L164.81 79.8038L165.646 73.8674C165.26 74.0274 164.855 74.2466 164.441 74.4995C164.026 74.7525 163.628 75.0484 163.229 75.3699L163.774 80.4489L160.678 78.052C159.991 78.9618 159.397 79.925 158.929 80.9086L163.02 81.6803L157.814 84.2244C157.725 84.6818 157.68 85.1317 157.668 85.5655C157.657 85.9993 157.68 86.4 157.747 86.7678Z" fill="#B3B3B3"/>
<path d="M161.69 82.837C161.733 81.2038 162.922 79.2688 164.344 78.4977C165.766 77.7265 166.885 78.4285 166.842 80.0531C166.8 81.6778 165.61 83.6213 164.188 84.3925C162.767 85.1636 161.647 84.4702 161.69 82.837Z" fill="#1A1A1A"/>
</g>
<path d="M164.339 67.4147C158.582 70.5487 151.719 77.9776 152.575 89.6192C148.24 81.0354 156.983 69.3659 163.48 65.8344C165.548 64.7057 167.559 64.1628 169.451 64.2127C175.783 64.3796 177.662 71.4091 175.471 77.1992L175.48 76.8674C176.508 67.1652 170.957 63.8268 164.347 67.4234L164.339 67.4147Z" fill="#E62A49"/>
<path d="M15.8576 112.199L15.8125 113.908C15.8024 114.615 16.1499 115.288 16.734 115.686C19.5542 117.608 21.9508 119.169 25.0179 121.071L26.2966 121.863C27.8346 122.805 29.3901 123.732 30.9627 124.65C31.7742 125.122 32.7917 124.545 32.8163 123.609L32.8446 122.537C32.8659 121.729 32.4442 120.969 31.7416 120.559C29.9684 119.516 28.2123 118.466 26.482 117.407L24.9022 116.438C21.9939 114.633 19.7052 113.168 17.2095 111.502C16.6335 111.121 15.8586 111.518 15.8489 112.207L15.8576 112.199Z" fill="white"/>
<path d="M186.011 47.276C185.913 46.4647 185.024 46.0242 184.317 46.4312L173.347 52.7474L167.119 56.3371C165.023 57.5672 163.041 58.6385 160.744 60.0676C156.296 62.8785 151.938 66.4494 147.94 70.532C146.936 71.544 145.965 72.6165 145.02 73.6811L143.68 75.212C143.234 75.711 142.831 76.177 142.385 76.6505C140.653 78.5371 138.831 80.3106 136.953 81.9636C135.067 83.6077 133.124 85.1228 131.152 86.4753C130.166 87.1473 129.172 87.7935 128.18 88.3803C127.187 88.9755 126.118 89.5772 125.092 90.1715L112.638 97.3424L87.7292 111.684L112.595 98.9586L125.028 92.5958C126.07 92.053 127.077 91.5603 128.162 90.9845C129.239 90.417 130.325 89.7902 131.405 89.1207C133.564 87.7816 135.719 86.2467 137.836 84.549C139.954 82.8428 142.025 80.9736 144.023 78.9579C144.52 78.4602 145.018 77.9286 145.498 77.439L146.888 75.969C147.77 75.0474 148.66 74.1516 149.566 73.2902C153.198 69.8534 157.072 66.9507 160.917 64.7709C162.771 63.7302 164.939 62.6808 166.989 61.6112L173.205 58.4298L184.407 52.6985C185.69 52.0428 186.423 50.6576 186.248 49.2315L186.01 47.3015L186.011 47.276Z" fill="white"/>
<path d="M118.662 82.7582C117.981 83.1318 117.413 84.0532 117.393 84.8273C117.372 85.6013 117.916 85.9221 118.597 85.5485L122.535 83.4051C123.216 83.0315 123.775 82.1184 123.795 81.3444C123.816 80.5703 123.281 80.2412 122.6 80.6148L118.662 82.7582Z" fill="#A8000C"/>
<path d="M149.965 65.8697C149.284 66.2433 148.717 67.1646 148.696 67.9387C148.676 68.7128 149.219 69.0335 149.9 68.6599L153.838 66.5165C154.519 66.1429 155.078 65.2298 155.099 64.4558C155.119 63.6817 154.584 63.3527 153.903 63.7263L149.965 65.8697Z" fill="#A8000C"/>
<path d="M87.9646 94.7002C87.5676 94.9366 87.3351 95.3816 87.3737 95.8508L87.8257 101.259C87.87 101.831 88.3165 102.294 88.8836 102.368L94.2929 103.064C95.1901 103.181 95.9642 102.495 96.006 101.552L96.1598 98.2956C96.1979 97.4964 95.6994 96.7512 94.9665 96.5191L88.961 94.5988C88.6325 94.4965 88.2746 94.5381 87.9728 94.7089L87.9646 94.7002Z" fill="#E62A49"/>
<path d="M87.2809 96.1463L87.1264 102.007C87.1116 102.568 87.5409 103.039 88.092 103.08L93.8226 103.503C94.7637 103.57 95.5811 102.851 95.6229 101.908L95.7852 98.6517C95.8232 97.8526 95.2986 97.1322 94.5224 96.933L88.3297 95.3483C87.8066 95.2153 87.2953 95.6019 87.2809 96.1463Z" fill="#A8000C"/>
<path d="M115.751 11.469L64.6923 39.2431C64.0633 39.5841 63.0617 39.5577 62.4515 39.1841C61.8413 38.8105 61.8565 38.232 62.4856 37.8911L113.544 10.117C114.173 9.77611 115.174 9.80251 115.785 10.1761C116.395 10.5497 116.38 11.1281 115.751 11.469Z" fill="#FF6B84"/>
<path d="M146.109 30.1107L95.0506 57.8848C94.4216 58.2257 93.42 58.1993 92.8098 57.8257C92.1996 57.4521 92.2148 56.8737 92.8439 56.5328L143.902 28.7587C144.531 28.4178 145.533 28.4442 146.143 28.8178C146.753 29.1914 146.738 29.7698 146.109 30.1107Z" fill="#FF6B84"/>
</g>
<defs>
<clipPath id="clip0_129_1837">
<rect width="185" height="148" fill="white" transform="translate(3.89995) rotate(1.50998)"/>
</clipPath>
</defs>
</svg>
