<svg width="199" height="234" viewBox="0 0 199 234" fill="none" xmlns="http://www.w3.org/2000/svg">
<path d="M199 234L198.5 233.74C195.477 232.155 192.493 230.284 189.635 228.179C186.289 225.7 183.112 222.964 180.081 220.039C179.376 219.359 178.679 218.668 177.989 217.968C166.915 206.732 157.813 193.107 149.54 180.724C147.219 177.256 144.9 173.788 142.58 170.321C136.649 161.455 130.72 152.589 124.789 143.721C116.373 131.138 107.957 118.554 99.5403 105.976C83.6572 82.2272 67.2339 57.6705 44.5044 40.6713C38.3865 36.0963 31.2101 31.8707 23.4063 28.606L23.4032 28.606C16.2579 25.6173 8.58795 23.4335 0.728122 22.5257C-10.5144 21.2279 -22.143 22.5397 -33.1801 27.8354C-36.8384 29.5918 -40.478 31.7958 -43.9992 33.9281C-52.6125 39.1474 -61.4998 44.546 -71.2276 43.6085C-83.2813 42.4558 -92.0393 32.1577 -100.509 22.1966C-107.81 13.6127 -115.334 4.76375 -125.099 1.39449C-125.776 1.15895 -126.466 0.951479 -127.166 0.773668C-127.581 0.666033 -127.999 0.569307 -128.421 0.483507C-129.992 0.160616 -131.595 -2.89016e-05 -133.221 -2.90436e-05C-135.444 -2.9238e-05 -137.712 0.302568 -140 0.903108L-140 234L199 234ZM-139.709 1.43503C-135.884 0.452318 -132.131 0.324434 -128.539 1.06067C-128.077 1.15427 -127.621 1.26187 -127.168 1.38198C-126.467 1.56291 -125.779 1.77664 -125.101 2.01842C-115.575 5.38924 -108.157 14.1134 -100.958 22.5787C-92.4129 32.6272 -83.577 43.0189 -71.2837 44.195C-70.5162 44.2684 -69.7566 44.3042 -69 44.3042C-59.9929 44.3042 -51.7174 39.2909 -43.6972 34.432C-40.1884 32.3075 -36.5613 30.1096 -32.9295 28.3657C-21.8815 23.0654 -10.2327 21.7957 1.01767 23.1512L1.01923 23.1512C8.27817 24.0231 15.369 25.9917 22.0286 28.6746L22.0317 28.6746C30.2325 31.9783 37.7716 36.3693 44.1525 41.1424C66.8011 58.0808 83.1964 82.5968 99.0515 106.303C107.47 118.883 115.886 131.465 124.3 144.048C130.125 152.759 135.95 161.467 141.777 170.176C144.201 173.801 146.628 177.426 149.053 181.051C157.24 193.307 166.237 206.776 177.164 217.968C177.847 218.668 178.539 219.359 179.238 220.039C182.416 223.14 185.757 226.039 189.286 228.653C191.842 230.536 194.496 232.231 197.191 233.707L-139.709 233.707L-139.709 1.43503Z" fill="white"/>
</svg>
