<svg width="231" height="122" viewBox="0 0 231 122" fill="none" xmlns="http://www.w3.org/2000/svg">
<path d="M0 -112L0.499704 -111.74C3.52283 -110.155 6.50705 -108.284 9.36517 -106.179C12.7105 -103.7 15.8878 -100.964 18.9187 -98.0394C19.6239 -97.3593 20.3213 -96.6683 21.0109 -95.9679C32.0853 -84.7324 41.1874 -71.1071 49.4598 -58.7235C51.7808 -55.256 54.1003 -51.7885 56.4198 -48.3209C62.3509 -39.4548 68.2804 -30.5886 74.2115 -21.7209C82.627 -9.13764 91.0426 3.44562 99.4597 16.0242C115.343 39.7728 131.766 64.3295 154.496 81.3286C160.614 85.9037 167.79 90.1293 175.594 93.394H175.597C182.742 96.3827 190.412 98.5665 198.272 99.4743C209.514 100.772 221.143 99.4603 232.18 94.1646C235.838 92.4082 239.478 90.2041 242.999 88.0718C251.613 82.8526 260.5 77.454 270.228 78.3914C282.281 79.5442 291.039 89.8423 299.509 99.8034C306.81 108.387 314.334 117.236 324.099 120.605C324.776 120.841 325.466 121.048 326.166 121.226C326.581 121.334 326.999 121.431 327.421 121.516C328.992 121.839 330.595 122 332.221 122C334.444 122 336.712 121.697 339 121.097L339 -112L0 -112ZM338.709 120.565C334.884 121.548 331.131 121.676 327.539 120.939C327.077 120.846 326.621 120.738 326.168 120.618C325.467 120.437 324.779 120.223 324.101 119.982C314.575 116.611 307.158 107.887 299.958 99.4213C291.413 89.3728 282.577 78.981 270.284 77.8049C269.516 77.7316 268.757 77.6958 268 77.6958C258.993 77.6958 250.717 82.7091 242.697 87.568C239.188 89.6925 235.561 91.8904 231.93 93.6342C220.882 98.9346 209.233 100.204 197.982 98.8488H197.981C190.722 97.9768 183.631 96.0083 176.971 93.3254H176.968C168.768 90.0216 161.228 85.6307 154.847 80.8576C132.199 63.9192 115.804 39.4032 99.9485 15.6966C91.5299 3.1165 83.1143 -9.46522 74.7003 -22.0485C68.8751 -30.7586 63.0499 -39.4672 57.2231 -48.1759C54.7993 -51.8009 52.3724 -55.426 49.947 -59.0511C41.7603 -71.3068 32.7625 -84.776 21.836 -95.9679C21.1526 -96.6683 20.4614 -97.3593 19.7624 -98.0394C16.5836 -101.14 13.2429 -104.039 9.71387 -106.653C7.15775 -108.536 4.50356 -110.231 1.8089 -111.707L338.709 -111.707L338.709 120.565Z" fill="white"/>
</svg>
