<svg width="135" height="184" viewBox="0 0 135 184" fill="none" xmlns="http://www.w3.org/2000/svg">
<g clipPath="url(#clip0_1233_4923)">
<path fill-rule="evenodd" clip-rule="evenodd" d="M56.1406 3.01866L59.9475 0L76.2841 1.39542L79.5681 4.69479L80.679 8.28708L54.9238 6.08207L56.1406 3.01663V3.01866Z" fill="#D03027"/>
<path fill-rule="evenodd" clip-rule="evenodd" d="M86.2309 47.7235C85.1504 35.4882 85.2237 17.8177 79.8134 7.13639C78.1124 3.78006 75.9292 1.43877 76.037 1.38182C76.4826 1.13772 81.2214 3.1088 83.0038 5.48264C90.8598 15.9564 90.9839 34.1742 92.4347 47.9839C92.5405 48.9868 86.2858 48.3114 86.2309 47.7256V47.7235Z" fill="#D03027"/>
<path fill-rule="evenodd" clip-rule="evenodd" d="M42.9682 43.9816C46.0508 32.1022 48.8851 14.6676 55.9781 5.05633C58.2061 2.03157 60.9142 0.304586 60.6518 0.107274C59.022 -0.387021 55.2496 0.841598 53.1051 2.87777C43.6356 11.8666 40.5123 29.8077 36.8112 43.1801C36.5406 44.1525 42.8238 44.5491 42.9682 43.9816Z" fill="#D03027"/>
<path fill-rule="evenodd" clip-rule="evenodd" d="M13.6562 34.2389L17.6198 30.0363L19.504 27.9473L115.68 32.4976L86.712 69.0531L13.6562 34.2389Z" fill="#D03027"/>
<mask id="mask0_1233_4923" style="mask-type:luminance" maskUnits="userSpaceOnUse" x="0" y="33" width="102" height="151">
<path d="M101.261 33.8027H0V183.999H101.261V33.8027Z" fill="white"/>
</mask>
<g mask="url(#mask0_1233_4923)">
<path fill-rule="evenodd" clip-rule="evenodd" d="M100.803 183.847L0.00390625 165.265L13.6567 34.2383L100.803 42.8122V183.847Z" fill="#EE4823"/>
</g>
<mask id="mask1_1233_4923" style="mask-type:luminance" maskUnits="userSpaceOnUse" x="100" y="31" width="35" height="153">
<path d="M134.773 31.8496H100.283V183.997H134.773V31.8496Z" fill="white"/>
</mask>
<g mask="url(#mask1_1233_4923)">
<path fill-rule="evenodd" clip-rule="evenodd" d="M100.803 183.842L135 155.46L115.68 32.4922L105.991 34.8233L100.803 43.4623V183.844V183.842Z" fill="#BF3126"/>
</g>
<path fill-rule="evenodd" clip-rule="evenodd" d="M45.6818 10.0922L49.4399 7.62891L65.7765 9.02839L69.1032 11.8233L70.263 14.8359L44.5078 12.6309L45.6818 10.0902V10.0922Z" fill="#D03027"/>
<path fill-rule="evenodd" clip-rule="evenodd" d="M76.3475 47.8004C75.0962 37.5829 74.9293 22.8497 69.3766 13.8649C67.6288 11.0395 65.4212 9.05617 65.5229 9.00939C65.9645 8.81411 70.7256 10.5228 72.5386 12.5305C80.5268 21.3749 80.9052 36.5699 82.5452 48.1076C82.6632 48.9456 76.4065 48.2947 76.3455 47.8024L76.3475 47.8004Z" fill="#D03027"/>
<path fill-rule="evenodd" clip-rule="evenodd" d="M33.0868 44.0635C35.9985 34.204 38.5927 19.7087 45.5392 11.7898C47.7244 9.30411 50.2312 7.72358 50.1355 7.65849C49.7306 7.39202 44.7558 8.26873 42.6438 9.93469C33.3086 17.2962 30.4356 32.2126 26.9217 43.3108C26.6653 44.1163 32.9464 44.5354 33.0868 44.0614V44.0635Z" fill="#D03027"/>
<path d="M40.0202 90.0076C39.6621 89.973 39.361 89.8103 39.1168 89.5235L27.1691 75.4839C27.106 75.4086 27.049 75.3252 27.0002 75.2357C26.9514 75.1462 26.9107 75.0547 26.8761 74.955C26.8435 74.8553 26.8211 74.7556 26.8049 74.6519C26.7886 74.5482 26.7845 74.4444 26.7886 74.3386C26.7926 74.2329 26.8049 74.1291 26.8272 74.0254C26.8496 73.9237 26.8801 73.822 26.9208 73.7264C26.9615 73.6308 27.0083 73.5372 27.0633 73.4518C27.1182 73.3643 27.1813 73.285 27.2505 73.2117C27.3196 73.1385 27.3949 73.0734 27.4743 73.0164C27.5557 72.9595 27.6391 72.9107 27.7286 72.872C27.8181 72.8334 27.9097 72.8029 28.0033 72.7846C28.0969 72.7642 28.1905 72.7561 28.2841 72.7581C28.3797 72.7581 28.4733 72.7703 28.5649 72.7927C28.6564 72.8151 28.746 72.8456 28.8334 72.8883C28.9209 72.931 29.0003 72.9798 29.0776 73.0409C29.1549 73.0998 29.2261 73.167 29.2913 73.2422L41.239 87.2819C41.3387 87.3998 41.4221 87.5321 41.4852 87.6785C41.5483 87.825 41.591 87.9796 41.6113 88.1423C41.6317 88.305 41.6296 88.4678 41.6073 88.6305C41.5849 88.7932 41.5381 88.9499 41.4709 89.0983C41.4038 89.2468 41.3204 89.3811 41.2166 89.5031C41.1128 89.6232 40.9969 89.7249 40.8687 89.8062C40.7384 89.8876 40.6001 89.9466 40.4556 89.9812C40.3091 90.0157 40.1647 90.0259 40.0182 90.0117L40.0202 90.0076Z" fill="white"/>
<path d="M26.8137 88.7035C26.6672 88.6893 26.5268 88.6507 26.3905 88.5876C26.2562 88.5245 26.1321 88.4411 26.0202 88.3354C25.9083 88.2296 25.8147 88.1075 25.7373 87.9692C25.66 87.8309 25.6031 87.6824 25.5664 87.5238C25.5298 87.3651 25.5156 87.2044 25.5237 87.0396C25.5318 86.8749 25.5624 86.7162 25.6153 86.5616C25.6661 86.407 25.7394 86.2626 25.8309 86.1324C25.9225 86.0002 26.0283 85.8863 26.1504 85.7907L40.615 74.3588C40.6924 74.2978 40.7758 74.2449 40.8633 74.2001C40.9508 74.1574 41.0403 74.1228 41.1339 74.0984C41.2275 74.074 41.3211 74.0598 41.4167 74.0557C41.5123 74.0517 41.6059 74.0598 41.6995 74.0761C41.7931 74.0923 41.8847 74.1188 41.9722 74.1574C42.0617 74.194 42.1451 74.2408 42.2245 74.2958C42.3038 74.3507 42.3791 74.4158 42.4483 74.487C42.5154 74.5602 42.5765 74.6395 42.6314 74.725C42.6864 74.8104 42.7311 74.9019 42.7698 74.9975C42.8064 75.0931 42.8369 75.1928 42.8552 75.2965C42.8756 75.4003 42.8858 75.504 42.8878 75.6098C42.8878 75.7156 42.8817 75.8214 42.8634 75.9251C42.8451 76.0288 42.8207 76.1305 42.784 76.2302C42.7494 76.3299 42.7067 76.4255 42.6538 76.515C42.6029 76.6045 42.5439 76.6879 42.4768 76.7672C42.4096 76.8445 42.3384 76.9137 42.2591 76.9767L27.7944 88.4086C27.4994 88.6425 27.1718 88.7422 26.8137 88.7076V88.7035Z" fill="white"/>
<path d="M79.4417 94.1914C79.0857 94.1385 78.7927 93.9636 78.5628 93.6645L67.2824 79.0818C67.2234 79.0025 67.1705 78.917 67.1237 78.8255C67.0769 78.734 67.0423 78.6404 67.0138 78.5407C66.9853 78.441 66.967 78.3393 66.9568 78.2336C66.9467 78.1278 66.9467 78.024 66.9568 77.9203C66.967 77.8166 66.9833 77.7108 67.0098 77.6091C67.0362 77.5074 67.0728 77.4097 67.1156 77.3141C67.1603 77.2185 67.2112 77.129 67.2722 77.0456C67.3312 76.9602 67.3984 76.8849 67.4716 76.8137C67.5428 76.7446 67.6222 76.6815 67.7056 76.6286C67.789 76.5757 67.8765 76.531 67.9661 76.4964C68.0576 76.4618 68.1492 76.4374 68.2428 76.4232C68.3364 76.4069 68.432 76.4028 68.5256 76.4089C68.6212 76.415 68.7128 76.4313 68.8044 76.4557C68.8959 76.4801 68.9834 76.5188 69.0668 76.5635C69.1503 76.6083 69.2296 76.6632 69.3049 76.7263C69.3802 76.7893 69.4473 76.8605 69.5084 76.9378L80.7887 91.5206C80.8823 91.6426 80.9596 91.7789 81.0166 91.9294C81.0736 92.0799 81.1082 92.2345 81.1204 92.3993C81.1346 92.562 81.1244 92.7248 81.0919 92.8855C81.0593 93.0462 81.0085 93.2008 80.9352 93.3452C80.862 93.4916 80.7704 93.6198 80.6626 93.7378C80.5547 93.8537 80.4326 93.9473 80.3004 94.0246C80.1661 94.0998 80.0257 94.1507 79.8792 94.1792C79.7327 94.2076 79.5862 94.2117 79.4397 94.1893L79.4417 94.1914Z" fill="white"/>
<path d="M66.3107 92.2726C66.1642 92.2522 66.0258 92.2054 65.8935 92.1363C65.7613 92.0671 65.6412 91.9776 65.5354 91.8678C65.4296 91.7579 65.3401 91.6318 65.2709 91.4894C65.2017 91.347 65.1509 91.1965 65.1224 91.0358C65.0939 90.8751 65.0858 90.7144 65.102 90.5496C65.1183 90.3849 65.157 90.2283 65.216 90.0757C65.275 89.9231 65.3523 89.7828 65.45 89.6567C65.5476 89.5285 65.6575 89.4207 65.7837 89.3312L80.7672 78.5889C80.8486 78.5299 80.934 78.4811 81.0235 78.4425C81.1131 78.4038 81.2046 78.3733 81.2982 78.353C81.3918 78.3326 81.4874 78.3224 81.5831 78.3245C81.6787 78.3245 81.7723 78.3367 81.8659 78.357C81.9595 78.3774 82.049 78.4099 82.1345 78.4506C82.222 78.4913 82.3034 78.5421 82.3807 78.6011C82.458 78.6601 82.5292 78.7272 82.5943 78.8025C82.6574 78.8778 82.7164 78.9612 82.7652 79.0486C82.8141 79.1361 82.8568 79.2297 82.8894 79.3293C82.9219 79.427 82.9463 79.5287 82.9606 79.6324C82.9748 79.7362 82.9809 79.8419 82.9789 79.9477C82.9748 80.0535 82.9626 80.1572 82.9402 80.261C82.9178 80.3647 82.8873 80.4644 82.8466 80.562C82.808 80.6597 82.7591 80.7532 82.7022 80.8407C82.6472 80.9282 82.5842 81.0095 82.515 81.0828C82.4458 81.158 82.3685 81.2231 82.2891 81.2801L67.3056 92.0224C67.0004 92.2421 66.6688 92.3275 66.3127 92.2746L66.3107 92.2726Z" fill="white"/>
<path d="M70.2249 136.743C70.0906 136.726 69.9583 136.7 69.8281 136.661C69.6979 136.623 69.5738 136.574 69.4537 136.515C69.3337 136.456 69.2218 136.389 69.118 136.309C69.0122 136.232 68.9186 136.147 68.8332 136.053C68.7477 135.96 68.6724 135.86 68.6093 135.754C68.5463 135.65 68.4954 135.541 68.4547 135.427C68.414 135.313 68.3896 135.199 68.3774 135.081C68.3631 134.965 68.3652 134.847 68.3774 134.733C69.411 126.076 62.0434 118.055 51.9554 116.851C41.8673 115.647 32.8211 121.71 31.7875 130.37C31.7732 130.486 31.7468 130.598 31.7081 130.71C31.6674 130.819 31.6145 130.925 31.5514 131.027C31.4884 131.129 31.411 131.222 31.3256 131.31C31.2401 131.397 31.1425 131.476 31.0367 131.548C30.9329 131.619 30.8189 131.678 30.6989 131.729C30.5788 131.781 30.4547 131.82 30.3245 131.849C30.1943 131.879 30.062 131.895 29.9257 131.904C29.7914 131.91 29.6551 131.904 29.5208 131.889C29.3865 131.875 29.2543 131.847 29.124 131.808C28.9938 131.769 28.8697 131.72 28.7497 131.661C28.6296 131.602 28.5177 131.535 28.4139 131.456C28.3081 131.379 28.2125 131.293 28.127 131.2C28.0416 131.106 27.9663 131.006 27.9032 130.901C27.8401 130.797 27.7893 130.687 27.7486 130.573C27.7079 130.459 27.6835 130.345 27.6713 130.227C27.6591 130.111 27.6591 129.993 27.6713 129.88C27.7079 129.564 27.7547 129.251 27.8117 128.94C27.8666 128.627 27.9317 128.315 28.0029 128.008C28.0762 127.699 28.1576 127.392 28.2491 127.087C28.3386 126.782 28.4383 126.478 28.5482 126.177C28.6561 125.878 28.772 125.579 28.8982 125.286C29.0223 124.992 29.1566 124.699 29.299 124.412C29.4415 124.123 29.592 123.838 29.7507 123.555C29.9094 123.273 30.0763 122.996 30.2513 122.721C30.4262 122.447 30.6094 122.176 30.7986 121.912C30.9899 121.647 31.1872 121.385 31.3927 121.127C31.5982 120.868 31.8119 120.618 32.0337 120.37C32.2554 120.124 32.4833 119.88 32.7173 119.642C32.9513 119.404 33.1955 119.172 33.4437 118.946C33.6919 118.718 33.9463 118.499 34.2087 118.283C34.4692 118.067 34.7378 117.858 35.0124 117.652C35.2871 117.449 35.5659 117.252 35.8507 117.058C36.1376 116.867 36.4286 116.682 36.7257 116.503C37.0227 116.324 37.3239 116.151 37.6331 115.986C37.9404 115.82 38.2517 115.661 38.5691 115.508C38.8865 115.356 39.208 115.209 39.5335 115.071C39.8591 114.931 40.1887 114.801 40.5224 114.676C40.8561 114.552 41.1939 114.434 41.5336 114.325C41.8755 114.215 42.2193 114.111 42.5673 114.017C42.9152 113.922 43.2652 113.834 43.6192 113.755C43.9732 113.676 44.3293 113.602 44.6874 113.537C45.0455 113.472 45.4036 113.415 45.7678 113.366C46.13 113.318 46.4922 113.275 46.8584 113.24C47.2227 113.206 47.5889 113.179 47.9551 113.161C48.3234 113.143 48.6897 113.133 49.0579 113.128C49.4262 113.124 49.7945 113.128 50.1648 113.143C50.5351 113.157 50.9014 113.175 51.2697 113.204C51.6379 113.232 52.0062 113.269 52.3725 113.312C52.7387 113.354 53.105 113.407 53.4692 113.466C53.8334 113.525 54.1956 113.592 54.5577 113.665C54.9199 113.739 55.278 113.822 55.6361 113.912C55.9942 114.001 56.3483 114.099 56.7003 114.202C57.0543 114.308 57.4022 114.418 57.7502 114.538C58.0961 114.658 58.4399 114.784 58.7797 114.916C59.1195 115.051 59.4552 115.189 59.7889 115.338C60.1206 115.484 60.4502 115.639 60.7737 115.799C61.0972 115.96 61.4187 116.129 61.7341 116.302C62.0495 116.477 62.3608 116.658 62.666 116.845C62.9712 117.032 63.2723 117.225 63.5674 117.425C63.8624 117.624 64.1513 117.829 64.4362 118.041C64.719 118.252 64.9978 118.468 65.2704 118.692C65.5431 118.914 65.8076 119.141 66.07 119.375C66.3284 119.609 66.5828 119.847 66.829 120.091C67.0752 120.335 67.3153 120.584 67.5472 120.838C67.7792 121.092 68.005 121.35 68.2248 121.613C68.4425 121.875 68.6541 122.144 68.8576 122.414C69.061 122.687 69.2564 122.959 69.4436 123.24C69.6328 123.519 69.8139 123.802 69.9848 124.088C70.1557 124.375 70.3205 124.664 70.4772 124.957C70.6339 125.25 70.7804 125.545 70.9207 125.844C71.0611 126.143 71.1914 126.444 71.3134 126.747C71.4355 127.05 71.5495 127.355 71.6573 127.664C71.7631 127.972 71.8587 128.281 71.9462 128.592C72.0337 128.903 72.1151 129.216 72.1843 129.53C72.2555 129.843 72.3166 130.158 72.3695 130.476C72.4224 130.791 72.4651 131.108 72.5017 131.426C72.5363 131.743 72.5607 132.06 72.579 132.38C72.5953 132.697 72.6034 133.014 72.6014 133.334C72.6014 133.651 72.5892 133.968 72.5709 134.286C72.5505 134.603 72.5221 134.918 72.4834 135.231C72.4692 135.347 72.4427 135.459 72.404 135.571C72.3634 135.681 72.3125 135.787 72.2474 135.888C72.1823 135.99 72.109 136.084 72.0215 136.171C71.9361 136.259 71.8404 136.338 71.7346 136.407C71.6288 136.478 71.5169 136.539 71.3948 136.59C71.2748 136.641 71.1507 136.682 71.0205 136.71C70.8923 136.739 70.758 136.757 70.6237 136.765C70.4894 136.771 70.3531 136.765 70.2167 136.751L70.2249 136.743Z" fill="white"/>
</g>
<defs>
<clipPath id="clip0_1233_4923">
<rect width="135" height="184" fill="white"/>
</clipPath>
</defs>
</svg>
