<svg width="65" height="74" viewBox="0 0 65 74" fill="none" xmlns="http://www.w3.org/2000/svg">
<rect width="65" height="74" rx="3.69557" fill="#FF4401"/>
<path d="M43 18.3807C46.1924 20.2678 48.8434 22.9819 50.6866 26.2503C52.5297 29.5187 53.5 33.2263 53.5 37.0003C53.5 40.7743 52.5296 44.4819 50.6864 47.7503C48.8433 51.0186 46.1922 53.7327 42.9998 55.6197C39.8073 57.5067 36.186 58.5001 32.4997 58.5C28.8134 58.4999 25.192 57.5064 21.9997 55.6194C18.8073 53.7323 16.1563 51.0181 14.3132 47.7497C12.4702 44.4812 11.4999 40.7736 11.5 36.9996L11.5105 36.303C11.6281 32.59 12.6835 28.9715 14.5736 25.8003C16.4638 22.6292 19.1244 20.0136 22.2959 18.2085C25.4674 16.4034 29.0416 15.4705 32.6701 15.5007C36.2986 15.5309 39.8576 16.5232 43 18.3807ZM32.5 24.0997C31.943 24.0997 31.4089 24.3262 31.0151 24.7294C30.6212 25.1326 30.4 25.6795 30.4 26.2497C28.7291 26.2497 27.1267 26.9292 25.9452 28.1388C24.7637 29.3484 24.1 30.989 24.1 32.6996C24.1 34.4103 24.7637 36.0508 25.9452 37.2604C27.1267 38.47 28.7291 39.1496 30.4 39.1496V43.4496C30.0517 43.4693 29.704 43.4017 29.3871 43.2526C29.0701 43.1034 28.7936 42.8773 28.5814 42.5939L28.4386 42.3767C28.1513 41.9023 27.695 41.5609 27.1663 41.4247C26.6376 41.2885 26.0778 41.3682 25.6054 41.6469C25.133 41.9255 24.785 42.3814 24.635 42.918C24.4849 43.4547 24.5446 44.03 24.8014 44.5224C25.3374 45.4741 26.102 46.2699 27.0226 46.8343C27.9432 47.3987 28.9894 47.713 30.0619 47.7474H30.4C30.3996 48.2744 30.5882 48.7831 30.93 49.1771C31.2718 49.5711 31.7431 49.8228 32.2543 49.8845L32.5 49.8995C33.057 49.8995 33.5911 49.673 33.9849 49.2698C34.3787 48.8666 34.6 48.3197 34.6 47.7495L34.9696 47.7388C36.6068 47.6419 38.1425 46.8953 39.2505 45.6575C40.3585 44.4198 40.9515 42.7885 40.9034 41.1103C40.8552 39.4321 40.1698 37.8392 38.9928 36.6702C37.8158 35.5011 36.2399 34.848 34.6 34.8496V30.5497C35.3518 30.5239 36.0091 30.8507 36.4186 31.4054L36.5614 31.6225C36.8487 32.0969 37.305 32.4383 37.8337 32.5745C38.3624 32.7107 38.9222 32.631 39.3946 32.3524C39.867 32.0737 40.215 31.6178 40.365 31.0812C40.5151 30.5445 40.4554 29.9692 40.1986 29.4768C39.6629 28.5247 38.8984 27.7285 37.9778 27.1637C37.0571 26.5989 36.0108 26.2843 34.9381 26.2497H34.6C34.6 25.6795 34.3787 25.1326 33.9849 24.7294C33.5911 24.3262 33.057 24.0997 32.5 24.0997ZM34.6 39.1496C35.157 39.1496 35.6911 39.3761 36.0849 39.7793C36.4787 40.1825 36.7 40.7294 36.7 41.2996C36.7 41.8698 36.4787 42.4166 36.0849 42.8198C35.6911 43.223 35.157 43.4496 34.6 43.4496V39.1496ZM30.4 30.5497V34.8496C29.843 34.8496 29.3089 34.6231 28.9151 34.2199C28.5212 33.8167 28.3 33.2699 28.3 32.6996C28.3 32.1294 28.5212 31.5826 28.9151 31.1794C29.3089 30.7762 29.843 30.5497 30.4 30.5497Z" fill="white"/>
</svg>
