<svg width="65" height="74" viewBox="0 0 65 74" fill="none" xmlns="http://www.w3.org/2000/svg">
<rect width="65" height="74" rx="3.69557" fill="#FF4401"/>
<path d="M36.1705 41C31.0125 41 20.7159 43.66 20.7159 49V53H51.625V49C51.625 43.66 41.3284 41 36.1705 41ZM18.7841 33V27H14.9205V33H9.125V37H14.9205V43H18.7841V37H24.5795V33M36.1705 37C38.2199 37 40.1853 36.1571 41.6345 34.6569C43.0836 33.1566 43.8977 31.1217 43.8977 29C43.8977 26.8783 43.0836 24.8434 41.6345 23.3431C40.1853 21.8429 38.2199 21 36.1705 21C34.1211 21 32.1556 21.8429 30.7064 23.3431C29.2573 24.8434 28.4432 26.8783 28.4432 29C28.4432 31.1217 29.2573 33.1566 30.7064 34.6569C32.1556 36.1571 34.1211 37 36.1705 37Z" fill="white"/>
</svg>
