<svg width="65" height="74" viewBox="0 0 65 74" fill="none" xmlns="http://www.w3.org/2000/svg">
<rect width="65" height="74" rx="3.69557" fill="#FF4401"/>
<path d="M52.7237 35.7659L33.7427 17.2183C32.9474 16.4411 31.8511 16 30.7118 16H15.2992C12.9346 16 11 17.8905 11 20.2011V35.2618C11 36.3751 11.4514 37.4464 12.2683 38.2236L31.2492 56.7712C32.9259 58.4096 35.6559 58.4096 37.3326 56.7712L52.7452 41.7104C54.4218 40.072 54.4218 37.4254 52.7237 35.7659ZM20.6732 28.6032C18.889 28.6032 17.4488 27.1958 17.4488 25.4524C17.4488 23.7089 18.889 22.3016 20.6732 22.3016C22.4573 22.3016 23.8976 23.7089 23.8976 25.4524C23.8976 27.1958 22.4573 28.6032 20.6732 28.6032Z" fill="white"/>
</svg>
